<svg xmlns="http://www.w3.org/2000/svg" viewBox="0 0 128 128" role="img" aria-label="Classic black and white soccer ball">
  <defs>
    <radialGradient id="ball" cx="34%" cy="27%" r="74%">
      <stop offset="0" stop-color="#ffffff"/>
      <stop offset="0.68" stop-color="#f5f7f8"/>
      <stop offset="1" stop-color="#cbd1d5"/>
    </radialGradient>
    <clipPath id="round-ball"><circle cx="64" cy="64" r="56"/></clipPath>
  </defs>
  <circle cx="64" cy="64" r="58" fill="#07110c" opacity="0.28"/>
  <circle cx="64" cy="62" r="56" fill="url(#ball)" stroke="#111827" stroke-width="4"/>
  <g clip-path="url(#round-ball)" stroke="#4b5563" stroke-width="2.2" stroke-linecap="round" stroke-linejoin="round">
    <path d="M64 35 82 48 75 69 53 69 46 48Z" fill="#111827" stroke="#111827"/>
    <path d="M64 35 62 13 42 8 27 23 31 43 46 48" fill="none"/>
    <path d="M82 48 98 42 104 21 88 8 67 13 64 35" fill="none"/>
    <path d="M75 69 88 86 108 84 120 65 111 45 98 42" fill="none"/>
    <path d="M53 69 40 86 20 84 8 65 17 45 31 43 46 48" fill="none"/>
    <path d="M40 86 43 106 61 121 82 111 88 86 75 69" fill="none"/>
    <path d="M17 45 4 40 -2 58 8 65 20 84 9 101 -2 99" fill="#111827" stroke="#111827"/>
    <path d="M111 45 124 40 130 58 120 65 108 84 119 101 130 99" fill="#111827" stroke="#111827"/>
    <path d="M27 23 20 5 39 -5 58 2 67 13 64 35 42 8" fill="#111827" stroke="#111827"/>
    <path d="M88 8 106 2 119 18 104 21 98 42 82 48 64 35 67 13" fill="#111827" stroke="#111827" opacity="0.94"/>
    <path d="M43 106 28 119 45 132 68 132 82 111 61 121" fill="#111827" stroke="#111827"/>
    <path d="M88 86 108 84 119 101 105 120 82 111" fill="#111827" stroke="#111827"/>
    <path d="M40 86 20 84 9 101 28 119 43 106" fill="#111827" stroke="#111827" opacity="0.95"/>
    <path d="M46 48 31 43 17 45M82 48 98 42 111 45M40 86 53 69M75 69 88 86" fill="none"/>
    <ellipse cx="43" cy="32" rx="18" ry="10" fill="#ffffff" stroke="none" opacity="0.28" transform="rotate(-28 43 32)"/>
  </g>
  <circle cx="64" cy="62" r="56" fill="none" stroke="#111827" stroke-width="4"/>
</svg>
